<svg width="40" height="40" viewBox="0 0 40 40" fill="none" xmlns="http://www.w3.org/2000/svg">
<path d="M38 20.5263C38 30.1268 29.9917 38 20 38C10.0083 38 2 30.1268 2 20.5263C2 10.9258 10.0083 3.05264 20 3.05264C29.9917 3.05264 38 10.9258 38 20.5263Z" stroke="white" stroke-width="4"/>
<path d="M19.6891 12.69C20.3191 12.69 20.8891 12.45 21.3691 12C21.8191 11.55 22.0591 10.98 22.0591 10.32C22.0591 9.66 21.8191 9.09 21.3691 8.64C20.8891 8.19 20.3191 7.95 19.6891 7.95C19.0591 7.95 18.4891 8.19 18.0391 8.64C17.5591 9.09 17.3191 9.66 17.3191 10.32C17.3191 10.98 17.5591 11.55 18.0391 12C18.4891 12.45 19.0591 12.69 19.6891 12.69ZM17.7691 30H21.5791V14.49H17.7691V30Z" fill="white"/>
</svg>
